<?xml version="1.0" encoding="utf-8"?>
<!-- Generator: Adobe Illustrator 17.0.0, SVG Export Plug-In . SVG Version: 6.00 Build 0)  -->
<!DOCTYPE svg PUBLIC "-//W3C//DTD SVG 1.1//EN" "http://www.w3.org/Graphics/SVG/1.1/DTD/svg11.dtd">
<svg version="1.1" id="Layer_1" xmlns="http://www.w3.org/2000/svg" xmlns:xlink="http://www.w3.org/1999/xlink" x="0px" y="0px"
	 width="2222.451px" height="2500px" viewBox="0 0 2222.451 2500" enable-background="new 0 0 2222.451 2500" xml:space="preserve">
<path fill="none" d="M0,0.002h2500v2499.996H0V0.002z"/>
<path fill="#2062AF" d="M2014.079,2257.15l-902.86,243.105L208.345,2257.15L0,0h2222.451L2014.079,2257.15z"/>
<path fill="#3C9CD7" d="M1111.212,182.826V2306.36l2.042,0.557l730.647-196.745l168.647-1927.346L1111.212,182.826L1111.212,182.826
	z"/>
<path fill="#FFFFFF" d="M1110.41,747.204l-646.207,269.128l21.43,266.457l624.777-267.133l664.601-284.148l27.555-272.575
	L1110.41,747.204L1110.41,747.204z"/>
<linearGradient id="SVGID_1_" gradientUnits="userSpaceOnUse" x1="-135.2962" y1="80.0084" x2="-135.2962" y2="-35.3746" gradientTransform="matrix(4.6418 0 0 4.6418 1415.3181 911.4062)">
	<stop  offset="0.387" style="stop-color:#D1D3D4;stop-opacity:0"/>
	<stop  offset="1" style="stop-color:#D1D3D4"/>
</linearGradient>
<path fill="url(#SVGID_1_)" d="M464.196,1016.332l21.43,266.457l624.777-267.133V747.204L464.196,1016.332z"/>
<linearGradient id="SVGID_2_" gradientUnits="userSpaceOnUse" x1="8.8693" y1="22.459" x2="8.8693" y2="-97.4764" gradientTransform="matrix(4.6418 0 0 4.6418 1415.3181 911.4062)">
	<stop  offset="0.387" style="stop-color:#D1D3D4;stop-opacity:0"/>
	<stop  offset="1" style="stop-color:#D1D3D4"/>
</linearGradient>
<path fill="url(#SVGID_2_)" d="M1802.565,458.94L1110.41,747.204v268.452l664.601-284.148L1802.565,458.94z"/>
<linearGradient id="SVGID_3_" gradientUnits="userSpaceOnUse" x1="-204.6893" y1="131.4702" x2="72.4334" y2="131.4702" gradientTransform="matrix(4.6418 0 0 4.6418 1415.3181 911.4062)">
	<stop  offset="0" style="stop-color:#E8E7E5"/>
	<stop  offset="1" style="stop-color:#FFFFFF"/>
</linearGradient>
<path fill="url(#SVGID_3_)" d="M465.191,1016.332l21.436,266.457l958.638,3.056l-21.443,355.271l-315.448,88.808l-303.238-76.565
	l-18.374-220.515H505.001l36.755,425.712l569.682,168.442l566.593-165.386l73.509-845.279H465.191z"/>
<path opacity="0.05" enable-background="new    " d="M1110.41,1016.332H464.203l21.43,266.457l624.777,1.995L1110.41,1016.332
	L1110.41,1016.332z M1110.41,1729.076l-3.062,0.855l-303.198-76.565l-18.374-220.515H504.02l36.748,425.712l569.642,168.442
	V1729.076z"/>
<linearGradient id="SVGID_4_" gradientUnits="userSpaceOnUse" x1="-217.4399" y1="-68.1155" x2="83.426" y2="-68.1155" gradientTransform="matrix(4.6418 0 0 4.6418 1415.3181 911.4062)">
	<stop  offset="0" style="stop-color:#E8E7E5"/>
	<stop  offset="1" style="stop-color:#FFFFFF"/>
</linearGradient>
<path fill="url(#SVGID_4_)" d="M406.005,458.94h1396.56l-27.554,272.575H439.691L406.005,458.94L406.005,458.94z"/>
<path opacity="0.05" enable-background="new    " d="M1110.41,458.94H406.005l33.686,272.575h670.719L1110.41,458.94L1110.41,458.94
	z"/>
</svg>
