<?xml version="1.0" encoding="utf-8"?>
<!-- Generator: Adobe Illustrator 17.0.0, SVG Export Plug-In . SVG Version: 6.00 Build 0)  -->
<!DOCTYPE svg PUBLIC "-//W3C//DTD SVG 1.1//EN" "http://www.w3.org/Graphics/SVG/1.1/DTD/svg11.dtd">
<svg version="1.1" id="Layer_1" xmlns="http://www.w3.org/2000/svg" xmlns:xlink="http://www.w3.org/1999/xlink" x="0px" y="0px"
	 width="1754.071px" height="1191.245px" viewBox="325.092 320.911 1754.071 1191.245"
	 enable-background="new 325.092 320.911 1754.071 1191.245" xml:space="preserve">
<path fill="none" d="M-18.458,6.684h2500v1732.792h-2500V6.684z"/>
<path fill="#5D87A1" d="M746.801,1406.14h-67.682c-2.393-114.242-8.985-221.644-19.762-322.284h-0.602L555.708,1406.14h-51.53
	l-102.432-322.284h-0.589c-7.599,96.625-12.385,204.053-14.373,322.284h-61.692c3.976-143.774,13.968-278.563,29.937-404.379h83.887
	l97.632,297.134h0.602l98.234-297.134h80.264C733.225,1149.131,743.61,1283.933,746.801,1406.14 M1040.325,1107.79
	c-27.557,149.541-63.915,258.199-109.037,326.025c-35.155,52.21-73.672,78.341-115.615,78.341c-11.182,0-24.98-3.374-41.329-10.071
	v-36.058c7.991,1.151,17.368,1.805,28.145,1.805c19.592,0,35.339-5.388,47.345-16.191c14.36-13.157,21.541-27.949,21.541-44.311
	c0-11.221-5.598-34.161-16.767-68.898l-74.274-230.656h66.492l53.309,172.508c11.98,39.171,16.976,66.518,14.975,82.095
	c29.152-77.857,49.516-162.751,61.117-254.615h64.099V1107.79L1040.325,1107.79z"/>
<path fill="#F8981D" d="M1941.249,1406.14h-192.256v-404.379h64.674v354.602h127.582V1406.14z M1698.666,1415.91l-74.339-36.686
	c6.592-5.415,12.896-11.274,18.572-18.062c31.598-37.117,47.358-92.008,47.358-164.713c0-133.782-52.498-200.705-157.532-200.705
	c-51.504,0-91.682,16.976-120.415,50.941c-31.572,37.143-47.332,91.839-47.332,164.15c0,71.083,13.968,123.227,41.917,156.303
	c25.569,29.963,64.112,44.964,115.655,44.964c19.226,0,36.869-2.354,52.942-7.102l96.782,56.343L1698.666,1415.91z
	 M1457.849,1325.223c-16.375-26.34-24.562-68.637-24.562-126.955c0-101.817,30.931-152.785,92.859-152.785
	c32.37,0,56.094,12.189,71.266,36.516c16.348,26.38,24.575,68.297,24.575,125.804c0,102.654-30.957,153.988-92.845,153.988
	C1496.758,1361.804,1473.033,1349.654,1457.849,1325.223 M1336.793,1294.056c0,34.292-12.582,62.424-37.719,84.462
	c-25.163,21.946-58.906,32.945-101.19,32.945c-39.55,0-77.896-12.634-115.014-37.771l17.381-34.724
	c31.938,15.995,60.855,23.947,86.816,23.947c24.365,0,43.408-5.401,57.219-16.113c13.798-10.751,22.024-25.83,22.024-44.899
	c0-24.026-16.754-44.559-47.489-61.757c-28.342-15.564-85.024-48.103-85.024-48.103c-30.722-22.391-46.102-46.429-46.102-86.031
	c0-32.775,11.47-59.233,34.423-79.361c22.979-20.207,52.629-30.277,88.974-30.277c37.536,0,71.658,10.057,102.393,29.963
	l-15.59,34.737c-26.288-11.169-52.236-16.754-77.831-16.754c-20.73,0-36.738,4.983-47.868,14.988
	c-11.222,9.966-18.14,22.718-18.14,38.36c0,23.908,17.107,44.703,48.679,62.241c28.721,15.59,86.816,48.692,86.816,48.692
	C1321.059,1230.952,1336.793,1254.768,1336.793,1294.056"/>
<path fill="#5D87A1" d="M2022.442,866.318c-39.105-0.994-69.382,2.943-94.794,13.693c-7.337,2.93-19.003,2.93-20.024,12.202
	c3.963,3.924,4.421,10.254,7.86,15.668c5.859,9.77,16.074,22.914,25.399,29.767c10.241,7.847,20.52,15.616,31.297,22.456
	c19.003,11.758,40.544,18.598,59.063,30.316c10.79,6.814,21.514,15.629,32.317,22.966c5.31,3.911,8.71,10.254,15.603,12.699v-1.491
	c-3.453-4.394-4.434-10.751-7.821-15.642l-14.674-14.151c-14.177-19.043-31.794-35.665-50.797-49.32
	c-15.642-10.777-49.856-25.425-56.199-43.447l-0.994-0.994c10.751-1.007,23.502-4.905,33.717-7.899
	c16.623-4.381,31.781-3.387,48.836-7.769c7.847-1.962,15.629-4.421,23.502-6.84v-4.407c-8.841-8.802-15.145-20.494-24.444-28.812
	c-24.875-21.488-52.288-42.506-80.617-60.096c-15.171-9.796-34.684-16.1-50.837-24.431c-5.82-2.943-15.629-4.394-19.056-9.286
	c-8.763-10.751-13.693-24.902-20.05-37.627c-14.125-26.851-27.844-56.644-40.034-85.037c-8.815-19.043-14.177-38.059-24.928-55.676
	c-50.353-83.049-105.035-133.35-189.078-182.722c-18.062-10.28-39.55-14.661-62.503-20.05l-36.659-1.936
	c-7.821-3.427-15.655-12.726-22.482-17.12c-27.884-17.578-99.672-55.676-120.18-5.375c-13.209,31.794,19.54,63.052,30.787,79.178
	c8.305,11.195,19.069,23.934,24.876,36.646c3.44,8.305,4.407,17.12,7.847,25.896c7.821,21.501,15.132,45.422,25.412,65.485
	c5.362,10.228,11.208,20.978,18.062,30.238c3.924,5.415,10.751,7.808,12.242,16.636c-6.814,9.731-7.35,24.418-11.261,36.633
	c-17.578,55.205-10.711,123.593,14.203,164.163c7.795,12.215,26.393,39.105,51.268,28.799c22.024-8.789,17.146-36.633,23.476-61.051
	c1.452-5.898,0.497-9.77,3.427-13.641v0.955c6.814,13.667,13.693,26.837,20.01,40.544c15.158,23.921,41.551,48.849,63.536,65.419
	c11.705,8.841,20.978,23.96,35.639,29.362v-1.465h-0.968c-2.969-4.381-7.311-6.343-11.208-9.744
	c-8.815-8.802-18.572-19.553-25.412-29.309c-20.481-27.374-38.608-57.677-54.695-88.948c-7.873-15.171-14.661-31.755-21.004-46.9
	c-2.956-5.846-2.956-14.661-7.86-17.604c-7.35,10.738-18.062,20.037-23.424,33.194c-9.299,21.044-10.267,46.926-13.72,73.842
	l-1.923,0.942c-15.564-3.911-20.978-20.01-26.89-33.678c-14.635-34.711-17.094-90.426-4.394-130.473
	c3.4-10.241,18.114-42.493,12.242-52.249c-2.943-9.351-12.726-14.674-18.088-22.038c-6.304-9.26-13.209-20.978-17.604-31.258
	c-11.719-27.348-17.617-57.651-30.238-84.985c-5.898-12.739-16.139-25.922-24.431-37.654c-9.312-13.183-19.553-22.469-26.916-38.098
	c-2.433-5.375-5.846-14.164-1.936-20.01c0.955-3.924,2.943-5.388,6.84-6.369c6.33-5.349,24.418,1.452,30.761,4.394
	c18.114,7.324,33.259,14.164,48.378,24.418c6.84,4.905,14.177,14.19,22.953,16.636h10.28c15.603,3.4,33.194,0.942,47.881,5.362
	c25.883,8.318,49.333,20.52,70.363,33.691c63.994,40.583,116.766,98.247,152.393,167.119c5.846,11.221,8.331,21.501,13.667,33.207
	c10.293,23.96,23.019,48.391,33.233,71.841c10.267,22.953,20.05,46.39,34.711,65.459c7.311,10.254,36.686,15.629,49.856,21.004
	c9.744,4.381,24.915,8.279,33.704,13.654c16.623,10.241,33.181,21.998,48.81,33.259
	C1996.532,844.32,2020.989,856.536,2022.442,866.318 M1524.066,441.733c-6.745-0.07-13.47,0.757-19.997,2.459v0.981h0.942
	c3.937,7.808,10.777,13.223,15.655,20.037c3.937,7.834,7.35,15.603,11.208,23.424l0.942-0.968
	c6.892-4.878,10.319-12.699,10.319-24.431c-2.969-3.453-3.427-6.827-5.898-10.254
	C1534.359,448.089,1528.016,445.656,1524.066,441.733"/>
<path fill="#F8981D" d="M2068.976,1406.075h10.123v-49.542h-15.184l-12.385,33.808l-13.458-33.808h-14.622v49.542h9.561v-37.693
	h0.536l14.099,37.693h7.285l14.046-37.693V1406.075L2068.976,1406.075z M1987.43,1406.075h10.711v-41.146h14.021v-8.41h-39.341v8.41
	h14.583L1987.43,1406.075L1987.43,1406.075z"/>
</svg>
