<?xml version="1.0" encoding="utf-8"?>
<!-- Generator: Adobe Illustrator 17.0.0, SVG Export Plug-In . SVG Version: 6.00 Build 0)  -->
<!DOCTYPE svg PUBLIC "-//W3C//DTD SVG 1.1//EN" "http://www.w3.org/Graphics/SVG/1.1/DTD/svg11.dtd">
<svg version="1.1" id="Layer_1" xmlns="http://www.w3.org/2000/svg" xmlns:xlink="http://www.w3.org/1999/xlink" x="0px" y="0px"
	 width="785px" height="311.705px" viewBox="219.5 240.148 785 311.705" enable-background="new 219.5 240.148 785 311.705"
	 xml:space="preserve">
<path fill="#3D3D3D" d="M797.24,498.918l22.678-57.346h65.478l-31.077-86.992l38.866-98.281L1004.5,551.853h-82.091l-19.024-52.935
	H797.24z"/>
<path fill="#5A0FC8" d="M727.205,535.702L846.37,240.147h-79.003L685.85,431.141l-57.967-190.993h-60.724l-62.24,190.993
	l-43.893-87.032l-39.722,122.376l40.329,69.217h77.749l56.243-171.281l53.625,171.281H727.205z"/>
<path fill="#3D3D3D" d="M294.491,434.243h48.662c14.74,0,27.866-1.645,39.378-4.935l12.584-38.771l35.172-108.358
	c-2.68-4.248-5.74-8.264-9.179-12.048c-18.058-19.989-44.48-29.983-79.265-29.983H219.5v295.554h74.991V434.243z M358.902,308.143
	c7.054,7.099,10.581,16.599,10.581,28.501c0,11.993-3.102,21.504-9.305,28.535c-6.801,7.812-19.323,11.717-37.565,11.717h-28.122
	v-79.402h28.329C339.821,297.494,351.849,301.043,358.902,308.143z"/>
</svg>
