<svg xmlns="http://www.w3.org/2000/svg" viewBox="0 0 40 40">
  <defs>
    <style>
      .cls-1 {
        fill: #24292e;
      }
    </style>
  </defs>
  <path id="Path_14" data-name="Path 14" class="cls-1" d="M20,0A20.258,20.258,0,0,0,0,20.507,20.472,20.472,0,0,0,13.68,39.964c1,.189,1.365-.444,1.365-.988,0-.488-.017-1.777-.028-3.488-5.562,1.238-6.737-2.75-6.737-2.75a5.387,5.387,0,0,0-2.22-3c-1.817-1.271.135-1.246.135-1.246a4.212,4.212,0,0,1,3.063,2.114,4.2,4.2,0,0,0,5.823,1.7,4.413,4.413,0,0,1,1.27-2.742c-4.44-.518-9.11-2.277-9.11-10.133a8.043,8.043,0,0,1,2.06-5.5,7.535,7.535,0,0,1,.2-5.425s1.68-.551,5.5,2.1a18.5,18.5,0,0,1,10.015,0c3.817-2.653,5.5-2.1,5.5-2.1a7.546,7.546,0,0,1,.2,5.425,8.028,8.028,0,0,1,2.055,5.5c0,7.876-4.675,9.61-9.13,10.118a4.962,4.962,0,0,1,1.358,3.8c0,2.742-.025,4.953-.025,5.625,0,.549.36,1.187,1.375.986A20.475,20.475,0,0,0,40,20.507,20.259,20.259,0,0,0,20,0Z"/>
</svg>
