<svg id="Group_4" data-name="Group 4" xmlns="http://www.w3.org/2000/svg" viewBox="0 0 40 40">
  <defs>
    <style>
      .cls-1 {
        fill: #007ab9;
      }

      .cls-2 {
        fill: #f1f2f2;
      }
    </style>
  </defs>
  <path id="Path_12" data-name="Path 12" class="cls-1" d="M40,20A20,20,0,1,1,20,0,20,20,0,0,1,40,20Zm0,0"/>
  <path id="Path_13" data-name="Path 13" class="cls-2" d="M25.559,17.287v6.6H21.735V17.73c0-1.546-.552-2.6-1.937-2.6a2.094,2.094,0,0,0-1.961,1.4,2.581,2.581,0,0,0-.127.932v6.424H13.884s.052-10.424,0-11.5H17.71v1.631c-.007.012-.018.025-.025.037h.025v-.037a3.8,3.8,0,0,1,3.447-1.9c2.516,0,4.4,1.643,4.4,5.175ZM9.885,6.837a1.993,1.993,0,1,0-.05,3.974h.024a1.993,1.993,0,1,0,.026-3.974ZM7.948,23.884h3.823v-11.5H7.948Zm0,0" transform="translate(4.362 3.658)"/>
</svg>
