<svg id="Group_6" data-name="Group 6" xmlns="http://www.w3.org/2000/svg" viewBox="0 0 40 40">
  <defs>
    <style>
      .cls-1 {
        fill: #666;
      }
    </style>
  </defs>
  <path id="Path_17" data-name="Path 17" class="cls-1" d="M20,0A20,20,0,1,0,40,20,20,20,0,0,0,20,0ZM30.561,29.182l-1.6,1.6a2.962,2.962,0,0,1-1.15.464,18.888,18.888,0,0,1-19.06-19.1,2.983,2.983,0,0,1,.468-1.1l1.6-1.6a2.678,2.678,0,0,1,2.5-.591l.337.113A3.164,3.164,0,0,1,15.485,10.9l.806,2.956a2.9,2.9,0,0,1-.661,2.532l-1.069,1.069a11.356,11.356,0,0,0,7.986,7.988l1.069-1.069a2.893,2.893,0,0,1,2.532-.664l2.956.808a3.169,3.169,0,0,1,1.934,1.826l.113.342a2.682,2.682,0,0,1-.59,2.495Zm0,0"/>
</svg>
