<?xml version="1.0" encoding="utf-8"?>
<!-- Generator: Adobe Illustrator 17.0.0, SVG Export Plug-In . SVG Version: 6.00 Build 0)  -->
<!DOCTYPE svg PUBLIC "-//W3C//DTD SVG 1.1//EN" "http://www.w3.org/Graphics/SVG/1.1/DTD/svg11.dtd">
<svg version="1.1" id="Layer_1" xmlns="http://www.w3.org/2000/svg" xmlns:xlink="http://www.w3.org/1999/xlink" x="0px" y="0px"
	 width="612px" height="367.214px" viewBox="0 212.4 612 367.214" enable-background="new 0 212.4 612 367.214"
	 xml:space="preserve">
<g id="Group_15" transform="translate(40 24) rotate(180)">
	<g id="Group_13" transform="translate(0 0)">
		<path id="Path_94" fill="#777777" d="M33.758-548.501c-7.124-8.45-19.75-9.525-28.2-2.4c-0.867,0.731-1.67,1.534-2.4,2.4l-268.852,302.16
			l-269.387-302.16c-7.124-8.45-19.75-9.525-28.2-2.4c-0.867,0.731-1.67,1.534-2.4,2.4c-8.444,9.875-8.444,24.427,0,34.303
			l284.136,318.699c3.809,4.5,9.405,7.096,15.3,7.099c5.872-0.108,11.426-2.685,15.3-7.099L33.222-514.198
			C42.059-523.848,42.289-538.58,33.758-548.501z"/>
	</g>
</g>
</svg>
